<?xml version="1.0" encoding="UTF-8" standalone="no"?>
<!DOCTYPE svg PUBLIC "-//W3C//DTD SVG 1.1//EN"
 "http://www.w3.org/Graphics/SVG/1.1/DTD/svg11.dtd">
<!-- Generated by graphviz version 2.43.0 (0)
 -->
<!-- Title: G Pages: 1 -->
<svg width="1993pt" height="476pt"
 viewBox="0.00 0.00 1992.50 476.00" xmlns="http://www.w3.org/2000/svg" xmlns:xlink="http://www.w3.org/1999/xlink">
<g id="graph0" class="graph" transform="scale(1 1) rotate(0) translate(4 472)">
<title>G</title>
<polygon fill="white" stroke="transparent" points="-4,4 -4,-472 1988.5,-472 1988.5,4 -4,4"/>
<!-- mapSpatAlignment_subtopology_0 -->
<g id="node1" class="node">
<title>mapSpatAlignment_subtopology_0</title>
<polygon fill="none" stroke="black" points="891.22,-370.54 891.22,-385.46 830.46,-396 744.54,-396 683.78,-385.46 683.78,-370.54 744.54,-360 830.46,-360 891.22,-370.54"/>
<text text-anchor="middle" x="787.5" y="-375.5" font-family="Arial" font-size="10.00">mapSpatAlignment subtopology 0</text>
</g>
<!-- mapSpatAlignment_topic_ProcessedMap_STATE_STORE_0000000001 -->
<g id="node3" class="node">
<title>mapSpatAlignment_topic_ProcessedMap_STATE_STORE_0000000001</title>
<path fill="none" stroke="black" d="M233,-320.73C233,-322.53 180.78,-324 116.5,-324 52.22,-324 0,-322.53 0,-320.73 0,-320.73 0,-291.27 0,-291.27 0,-289.47 52.22,-288 116.5,-288 180.78,-288 233,-289.47 233,-291.27 233,-291.27 233,-320.73 233,-320.73"/>
<path fill="none" stroke="black" d="M233,-320.73C233,-318.92 180.78,-317.45 116.5,-317.45 52.22,-317.45 0,-318.92 0,-320.73"/>
<text text-anchor="middle" x="116.5" y="-303.5" font-family="Arial" font-size="10.00">topic.ProcessedMap&#45;STATE&#45;STORE&#45;0000000001</text>
</g>
<!-- mapSpatAlignment_subtopology_0&#45;&gt;mapSpatAlignment_topic_ProcessedMap_STATE_STORE_0000000001 -->
<g id="edge2" class="edge">
<title>mapSpatAlignment_subtopology_0&#45;&gt;mapSpatAlignment_topic_ProcessedMap_STATE_STORE_0000000001</title>
<path fill="none" stroke="black" d="M690.82,-369.26C580.04,-359.74 393.32,-342.55 233.5,-324 233.4,-323.99 233.29,-323.98 233.19,-323.96"/>
<polygon fill="black" stroke="black" points="233.85,-320.52 223.51,-322.82 233.03,-327.47 233.85,-320.52"/>
</g>
<!-- KSTREAM_TOTABLE_0000000006_repartition -->
<g id="node5" class="node">
<title>KSTREAM_TOTABLE_0000000006_repartition</title>
<polygon fill="none" stroke="black" points="465.5,-324 251.5,-324 251.5,-288 465.5,-288 465.5,-324"/>
<text text-anchor="middle" x="358.5" y="-303.5" font-family="Arial" font-size="10.00">KSTREAM&#45;TOTABLE&#45;0000000006&#45;repartition</text>
</g>
<!-- mapSpatAlignment_subtopology_0&#45;&gt;KSTREAM_TOTABLE_0000000006_repartition -->
<g id="edge5" class="edge">
<title>mapSpatAlignment_subtopology_0&#45;&gt;KSTREAM_TOTABLE_0000000006_repartition</title>
<path fill="none" stroke="black" d="M714.73,-365.13C648.61,-354.34 549.97,-338.24 473.24,-325.72"/>
<polygon fill="black" stroke="black" points="473.48,-322.22 463.05,-324.06 472.35,-329.12 473.48,-322.22"/>
</g>
<!-- topic_CmSignalGroupAlignmentEvents -->
<g id="node6" class="node">
<title>topic_CmSignalGroupAlignmentEvents</title>
<polygon fill="none" stroke="black" points="667.5,-324 483.5,-324 483.5,-288 667.5,-288 667.5,-324"/>
<text text-anchor="middle" x="575.5" y="-303.5" font-family="Arial" font-size="10.00">topic.CmSignalGroupAlignmentEvents</text>
</g>
<!-- mapSpatAlignment_subtopology_0&#45;&gt;topic_CmSignalGroupAlignmentEvents -->
<g id="edge6" class="edge">
<title>mapSpatAlignment_subtopology_0&#45;&gt;topic_CmSignalGroupAlignmentEvents</title>
<path fill="none" stroke="black" d="M738.86,-360.94C708.62,-350.95 669.46,-338.02 637.06,-327.33"/>
<polygon fill="black" stroke="black" points="637.83,-323.9 627.24,-324.08 635.64,-330.54 637.83,-323.9"/>
</g>
<!-- topic_CmRevocableEnabledLaneAlignment -->
<g id="node7" class="node">
<title>topic_CmRevocableEnabledLaneAlignment</title>
<polygon fill="none" stroke="black" points="889,-324 686,-324 686,-288 889,-288 889,-324"/>
<text text-anchor="middle" x="787.5" y="-303.5" font-family="Arial" font-size="10.00">topic.CmRevocableEnabledLaneAlignment</text>
</g>
<!-- mapSpatAlignment_subtopology_0&#45;&gt;topic_CmRevocableEnabledLaneAlignment -->
<g id="edge7" class="edge">
<title>mapSpatAlignment_subtopology_0&#45;&gt;topic_CmRevocableEnabledLaneAlignment</title>
<path fill="none" stroke="black" d="M787.5,-359.7C787.5,-351.98 787.5,-342.71 787.5,-334.11"/>
<polygon fill="black" stroke="black" points="791,-334.1 787.5,-324.1 784,-334.1 791,-334.1"/>
</g>
<!-- topic_CmSignalStateConflictEvents -->
<g id="node8" class="node">
<title>topic_CmSignalStateConflictEvents</title>
<polygon fill="none" stroke="black" points="1078,-324 907,-324 907,-288 1078,-288 1078,-324"/>
<text text-anchor="middle" x="992.5" y="-303.5" font-family="Arial" font-size="10.00">topic.CmSignalStateConflictEvents</text>
</g>
<!-- mapSpatAlignment_subtopology_0&#45;&gt;topic_CmSignalStateConflictEvents -->
<g id="edge8" class="edge">
<title>mapSpatAlignment_subtopology_0&#45;&gt;topic_CmSignalStateConflictEvents</title>
<path fill="none" stroke="black" d="M835.05,-360.76C864.18,-350.82 901.73,-337.99 932.85,-327.37"/>
<polygon fill="black" stroke="black" points="934.38,-330.54 942.71,-324 932.12,-323.92 934.38,-330.54"/>
</g>
<!-- SignalGroupAlignmentNotification_repartition -->
<g id="node9" class="node">
<title>SignalGroupAlignmentNotification_repartition</title>
<polygon fill="none" stroke="black" points="1476,-324 1267,-324 1267,-288 1476,-288 1476,-324"/>
<text text-anchor="middle" x="1371.5" y="-303.5" font-family="Arial" font-size="10.00">SignalGroupAlignmentNotification&#45;repartition</text>
</g>
<!-- mapSpatAlignment_subtopology_0&#45;&gt;SignalGroupAlignmentNotification_repartition -->
<g id="edge9" class="edge">
<title>mapSpatAlignment_subtopology_0&#45;&gt;SignalGroupAlignmentNotification_repartition</title>
<path fill="none" stroke="black" d="M876.41,-367.93C968.79,-358.29 1117.8,-342.13 1256.85,-324.06"/>
<polygon fill="black" stroke="black" points="1257.38,-327.52 1266.85,-322.75 1256.48,-320.58 1257.38,-327.52"/>
</g>
<!-- SignalStateConflictNotification_repartition -->
<g id="node10" class="node">
<title>SignalStateConflictNotification_repartition</title>
<polygon fill="none" stroke="black" points="1777.5,-324 1581.5,-324 1581.5,-288 1777.5,-288 1777.5,-324"/>
<text text-anchor="middle" x="1679.5" y="-303.5" font-family="Arial" font-size="10.00">SignalStateConflictNotification&#45;repartition</text>
</g>
<!-- mapSpatAlignment_subtopology_0&#45;&gt;SignalStateConflictNotification_repartition -->
<g id="edge10" class="edge">
<title>mapSpatAlignment_subtopology_0&#45;&gt;SignalStateConflictNotification_repartition</title>
<path fill="none" stroke="black" d="M887.22,-369.79C1022.7,-359.92 1272.47,-341.42 1485.5,-324 1513.26,-321.73 1543.24,-319.16 1571.15,-316.72"/>
<polygon fill="black" stroke="black" points="1571.67,-320.19 1581.32,-315.83 1571.06,-313.21 1571.67,-320.19"/>
</g>
<!-- spat_maps_joined_rsu_repartition -->
<g id="node11" class="node">
<title>spat_maps_joined_rsu_repartition</title>
<polygon fill="none" stroke="black" points="1249,-324 1096,-324 1096,-288 1249,-288 1249,-324"/>
<text text-anchor="middle" x="1172.5" y="-303.5" font-family="Arial" font-size="10.00">spat&#45;maps&#45;joined&#45;rsu&#45;repartition</text>
</g>
<!-- mapSpatAlignment_subtopology_0&#45;&gt;spat_maps_joined_rsu_repartition -->
<g id="edge11" class="edge">
<title>mapSpatAlignment_subtopology_0&#45;&gt;spat_maps_joined_rsu_repartition</title>
<path fill="none" stroke="black" d="M858.56,-364.81C916.87,-354.71 1001.87,-339.78 1085.67,-324.14"/>
<polygon fill="black" stroke="black" points="1086.44,-327.56 1095.62,-322.28 1085.15,-320.67 1086.44,-327.56"/>
</g>
<!-- topic_ProcessedSpat -->
<g id="node2" class="node">
<title>topic_ProcessedSpat</title>
<polygon fill="none" stroke="black" points="779,-468 672,-468 672,-432 779,-432 779,-468"/>
<text text-anchor="middle" x="725.5" y="-447.5" font-family="Arial" font-size="10.00">topic.ProcessedSpat</text>
</g>
<!-- topic_ProcessedSpat&#45;&gt;mapSpatAlignment_subtopology_0 -->
<g id="edge1" class="edge">
<title>topic_ProcessedSpat&#45;&gt;mapSpatAlignment_subtopology_0</title>
<path fill="none" stroke="black" d="M740.83,-431.7C748.26,-423.3 757.32,-413.07 765.48,-403.86"/>
<polygon fill="black" stroke="black" points="768.34,-405.91 772.35,-396.1 763.1,-401.27 768.34,-405.91"/>
</g>
<!-- mapSpatAlignment_topic_ProcessedMap_STATE_STORE_0000000001&#45;&gt;mapSpatAlignment_subtopology_0 -->
<g id="edge3" class="edge">
<title>mapSpatAlignment_topic_ProcessedMap_STATE_STORE_0000000001&#45;&gt;mapSpatAlignment_subtopology_0</title>
<path fill="none" stroke="black" d="M233.03,-321.78C239.28,-322.55 245.47,-323.3 251.5,-324 402.21,-341.49 576.84,-357.77 684.79,-367.55"/>
<polygon fill="black" stroke="black" points="684.76,-371.06 695.03,-368.48 685.39,-364.09 684.76,-371.06"/>
</g>
<!-- topic_ProcessedMap -->
<g id="node4" class="node">
<title>topic_ProcessedMap</title>
<polygon fill="none" stroke="black" points="903.5,-468 797.5,-468 797.5,-432 903.5,-432 903.5,-468"/>
<text text-anchor="middle" x="850.5" y="-447.5" font-family="Arial" font-size="10.00">topic.ProcessedMap</text>
</g>
<!-- topic_ProcessedMap&#45;&gt;mapSpatAlignment_subtopology_0 -->
<g id="edge4" class="edge">
<title>topic_ProcessedMap&#45;&gt;mapSpatAlignment_subtopology_0</title>
<path fill="none" stroke="black" d="M834.93,-431.7C827.3,-423.22 817.98,-412.86 809.62,-403.58"/>
<polygon fill="black" stroke="black" points="812.19,-401.2 802.89,-396.1 806.98,-405.88 812.19,-401.2"/>
</g>
<!-- mapSpatAlignment_subtopology_1 -->
<g id="node12" class="node">
<title>mapSpatAlignment_subtopology_1</title>
<polygon fill="none" stroke="black" points="646.22,-226.54 646.22,-241.46 585.46,-252 499.54,-252 438.78,-241.46 438.78,-226.54 499.54,-216 585.46,-216 646.22,-226.54"/>
<text text-anchor="middle" x="542.5" y="-231.5" font-family="Arial" font-size="10.00">mapSpatAlignment subtopology 1</text>
</g>
<!-- KSTREAM_TOTABLE_0000000006_repartition&#45;&gt;mapSpatAlignment_subtopology_1 -->
<g id="edge15" class="edge">
<title>KSTREAM_TOTABLE_0000000006_repartition&#45;&gt;mapSpatAlignment_subtopology_1</title>
<path fill="none" stroke="black" d="M403.51,-287.88C429.19,-278.11 461.55,-265.8 488.58,-255.51"/>
<polygon fill="black" stroke="black" points="490.17,-258.65 498.27,-251.83 487.68,-252.11 490.17,-258.65"/>
</g>
<!-- mapSpatAlignment_subtopology_3 -->
<g id="node19" class="node">
<title>mapSpatAlignment_subtopology_3</title>
<polygon fill="none" stroke="black" points="1453.22,-226.54 1453.22,-241.46 1392.46,-252 1306.54,-252 1245.78,-241.46 1245.78,-226.54 1306.54,-216 1392.46,-216 1453.22,-226.54"/>
<text text-anchor="middle" x="1349.5" y="-231.5" font-family="Arial" font-size="10.00">mapSpatAlignment subtopology 3</text>
</g>
<!-- SignalGroupAlignmentNotification_repartition&#45;&gt;mapSpatAlignment_subtopology_3 -->
<g id="edge22" class="edge">
<title>SignalGroupAlignmentNotification_repartition&#45;&gt;mapSpatAlignment_subtopology_3</title>
<path fill="none" stroke="black" d="M1366.06,-287.7C1363.61,-279.9 1360.66,-270.51 1357.93,-261.83"/>
<polygon fill="black" stroke="black" points="1361.21,-260.59 1354.88,-252.1 1354.54,-262.69 1361.21,-260.59"/>
</g>
<!-- mapSpatAlignment_subtopology_4 -->
<g id="node22" class="node">
<title>mapSpatAlignment_subtopology_4</title>
<polygon fill="none" stroke="black" points="1805.22,-226.54 1805.22,-241.46 1744.46,-252 1658.54,-252 1597.78,-241.46 1597.78,-226.54 1658.54,-216 1744.46,-216 1805.22,-226.54"/>
<text text-anchor="middle" x="1701.5" y="-231.5" font-family="Arial" font-size="10.00">mapSpatAlignment subtopology 4</text>
</g>
<!-- SignalStateConflictNotification_repartition&#45;&gt;mapSpatAlignment_subtopology_4 -->
<g id="edge26" class="edge">
<title>SignalStateConflictNotification_repartition&#45;&gt;mapSpatAlignment_subtopology_4</title>
<path fill="none" stroke="black" d="M1684.94,-287.7C1687.39,-279.9 1690.34,-270.51 1693.07,-261.83"/>
<polygon fill="black" stroke="black" points="1696.46,-262.69 1696.12,-252.1 1689.79,-260.59 1696.46,-262.69"/>
</g>
<!-- spat_maps_joined_rsu_repartition&#45;&gt;mapSpatAlignment_subtopology_1 -->
<g id="edge12" class="edge">
<title>spat_maps_joined_rsu_repartition&#45;&gt;mapSpatAlignment_subtopology_1</title>
<path fill="none" stroke="black" d="M1095.67,-289.43C1092.58,-288.92 1089.51,-288.44 1086.5,-288 937.54,-266.07 764.25,-250.97 654.01,-242.65"/>
<polygon fill="black" stroke="black" points="654.11,-239.15 643.87,-241.89 653.58,-246.13 654.11,-239.15"/>
</g>
<!-- mapSpatAlignment_KSTREAM_TOTABLE_STATE_STORE_0000000007 -->
<g id="node13" class="node">
<title>mapSpatAlignment_KSTREAM_TOTABLE_STATE_STORE_0000000007</title>
<path fill="none" stroke="black" d="M531,-176.73C531,-178.53 477.44,-180 411.5,-180 345.56,-180 292,-178.53 292,-176.73 292,-176.73 292,-147.27 292,-147.27 292,-145.47 345.56,-144 411.5,-144 477.44,-144 531,-145.47 531,-147.27 531,-147.27 531,-176.73 531,-176.73"/>
<path fill="none" stroke="black" d="M531,-176.73C531,-174.92 477.44,-173.45 411.5,-173.45 345.56,-173.45 292,-174.92 292,-176.73"/>
<text text-anchor="middle" x="411.5" y="-159.5" font-family="Arial" font-size="10.00">KSTREAM&#45;TOTABLE&#45;STATE&#45;STORE&#45;0000000007</text>
</g>
<!-- mapSpatAlignment_subtopology_1&#45;&gt;mapSpatAlignment_KSTREAM_TOTABLE_STATE_STORE_0000000007 -->
<g id="edge13" class="edge">
<title>mapSpatAlignment_subtopology_1&#45;&gt;mapSpatAlignment_KSTREAM_TOTABLE_STATE_STORE_0000000007</title>
<path fill="none" stroke="black" d="M504.56,-215.88C486.3,-206.64 464.62,-195.13 446.73,-185.21"/>
<polygon fill="black" stroke="black" points="448.2,-182.02 437.77,-180.19 444.78,-188.13 448.2,-182.02"/>
</g>
<!-- IntersectionReferenceAlignmentNotification_repartition -->
<g id="node14" class="node">
<title>IntersectionReferenceAlignmentNotification_repartition</title>
<polygon fill="none" stroke="black" points="800,-180 549,-180 549,-144 800,-144 800,-180"/>
<text text-anchor="middle" x="674.5" y="-159.5" font-family="Arial" font-size="10.00">IntersectionReferenceAlignmentNotification&#45;repartition</text>
</g>
<!-- mapSpatAlignment_subtopology_1&#45;&gt;IntersectionReferenceAlignmentNotification_repartition -->
<g id="edge16" class="edge">
<title>mapSpatAlignment_subtopology_1&#45;&gt;IntersectionReferenceAlignmentNotification_repartition</title>
<path fill="none" stroke="black" d="M574.79,-215.88C592.37,-206.55 614.31,-194.92 633.13,-184.94"/>
<polygon fill="black" stroke="black" points="634.89,-187.97 642.09,-180.19 631.61,-181.78 634.89,-187.97"/>
</g>
<!-- topic_CmIntersectionReferenceAlignmentEvents -->
<g id="node15" class="node">
<title>topic_CmIntersectionReferenceAlignmentEvents</title>
<polygon fill="none" stroke="black" points="1045,-180 818,-180 818,-144 1045,-144 1045,-180"/>
<text text-anchor="middle" x="931.5" y="-159.5" font-family="Arial" font-size="10.00">topic.CmIntersectionReferenceAlignmentEvents</text>
</g>
<!-- mapSpatAlignment_subtopology_1&#45;&gt;topic_CmIntersectionReferenceAlignmentEvents -->
<g id="edge17" class="edge">
<title>mapSpatAlignment_subtopology_1&#45;&gt;topic_CmIntersectionReferenceAlignmentEvents</title>
<path fill="none" stroke="black" d="M612.05,-220.49C671.83,-209.73 758.91,-194.06 827.07,-181.79"/>
<polygon fill="black" stroke="black" points="827.76,-185.22 836.98,-180.01 826.52,-178.34 827.76,-185.22"/>
</g>
<!-- mapSpatAlignment_KSTREAM_TOTABLE_STATE_STORE_0000000007&#45;&gt;mapSpatAlignment_subtopology_1 -->
<g id="edge14" class="edge">
<title>mapSpatAlignment_KSTREAM_TOTABLE_STATE_STORE_0000000007&#45;&gt;mapSpatAlignment_subtopology_1</title>
<path fill="none" stroke="black" d="M449.57,-180.19C467.84,-189.44 489.52,-200.95 507.39,-210.86"/>
<polygon fill="black" stroke="black" points="505.92,-214.04 516.35,-215.88 509.34,-207.94 505.92,-214.04"/>
</g>
<!-- mapSpatAlignment_subtopology_2 -->
<g id="node16" class="node">
<title>mapSpatAlignment_subtopology_2</title>
<polygon fill="none" stroke="black" points="778.22,-82.54 778.22,-97.46 717.46,-108 631.54,-108 570.78,-97.46 570.78,-82.54 631.54,-72 717.46,-72 778.22,-82.54"/>
<text text-anchor="middle" x="674.5" y="-87.5" font-family="Arial" font-size="10.00">mapSpatAlignment subtopology 2</text>
</g>
<!-- IntersectionReferenceAlignmentNotification_repartition&#45;&gt;mapSpatAlignment_subtopology_2 -->
<g id="edge18" class="edge">
<title>IntersectionReferenceAlignmentNotification_repartition&#45;&gt;mapSpatAlignment_subtopology_2</title>
<path fill="none" stroke="black" d="M674.5,-143.7C674.5,-135.98 674.5,-126.71 674.5,-118.11"/>
<polygon fill="black" stroke="black" points="678,-118.1 674.5,-108.1 671,-118.1 678,-118.1"/>
</g>
<!-- mapSpatAlignment_IntersectionReferenceAlignmentNotification -->
<g id="node17" class="node">
<title>mapSpatAlignment_IntersectionReferenceAlignmentNotification</title>
<path fill="none" stroke="black" d="M777.5,-32.73C777.5,-34.53 731.33,-36 674.5,-36 617.67,-36 571.5,-34.53 571.5,-32.73 571.5,-32.73 571.5,-3.27 571.5,-3.27 571.5,-1.47 617.67,0 674.5,0 731.33,0 777.5,-1.47 777.5,-3.27 777.5,-3.27 777.5,-32.73 777.5,-32.73"/>
<path fill="none" stroke="black" d="M777.5,-32.73C777.5,-30.92 731.33,-29.45 674.5,-29.45 617.67,-29.45 571.5,-30.92 571.5,-32.73"/>
<text text-anchor="middle" x="674.5" y="-15.5" font-family="Arial" font-size="10.00">IntersectionReferenceAlignmentNotification</text>
</g>
<!-- mapSpatAlignment_subtopology_2&#45;&gt;mapSpatAlignment_IntersectionReferenceAlignmentNotification -->
<g id="edge19" class="edge">
<title>mapSpatAlignment_subtopology_2&#45;&gt;mapSpatAlignment_IntersectionReferenceAlignmentNotification</title>
<path fill="none" stroke="black" d="M668.58,-71.7C667.79,-63.98 667.56,-54.71 667.9,-46.11"/>
<polygon fill="black" stroke="black" points="671.4,-46.32 668.6,-36.1 664.42,-45.84 671.4,-46.32"/>
</g>
<!-- topic_CmIntersectionReferenceAlignmentNotification -->
<g id="node18" class="node">
<title>topic_CmIntersectionReferenceAlignmentNotification</title>
<polygon fill="none" stroke="black" points="1041,-36 796,-36 796,0 1041,0 1041,-36"/>
<text text-anchor="middle" x="918.5" y="-15.5" font-family="Arial" font-size="10.00">topic.CmIntersectionReferenceAlignmentNotification</text>
</g>
<!-- mapSpatAlignment_subtopology_2&#45;&gt;topic_CmIntersectionReferenceAlignmentNotification -->
<g id="edge21" class="edge">
<title>mapSpatAlignment_subtopology_2&#45;&gt;topic_CmIntersectionReferenceAlignmentNotification</title>
<path fill="none" stroke="black" d="M727.75,-73.72C763.27,-63.53 810.35,-50.03 848.84,-38.98"/>
<polygon fill="black" stroke="black" points="850.3,-42.21 858.95,-36.09 848.37,-35.48 850.3,-42.21"/>
</g>
<!-- mapSpatAlignment_IntersectionReferenceAlignmentNotification&#45;&gt;mapSpatAlignment_subtopology_2 -->
<g id="edge20" class="edge">
<title>mapSpatAlignment_IntersectionReferenceAlignmentNotification&#45;&gt;mapSpatAlignment_subtopology_2</title>
<path fill="none" stroke="black" d="M680.4,-36.1C681.2,-43.79 681.44,-53.05 681.1,-61.67"/>
<polygon fill="black" stroke="black" points="677.61,-61.48 680.42,-71.7 684.59,-61.96 677.61,-61.48"/>
</g>
<!-- mapSpatAlignment_SignalGroupAlignmentNotification -->
<g id="node20" class="node">
<title>mapSpatAlignment_SignalGroupAlignmentNotification</title>
<path fill="none" stroke="black" d="M1388,-176.73C1388,-178.53 1351.47,-180 1306.5,-180 1261.53,-180 1225,-178.53 1225,-176.73 1225,-176.73 1225,-147.27 1225,-147.27 1225,-145.47 1261.53,-144 1306.5,-144 1351.47,-144 1388,-145.47 1388,-147.27 1388,-147.27 1388,-176.73 1388,-176.73"/>
<path fill="none" stroke="black" d="M1388,-176.73C1388,-174.92 1351.47,-173.45 1306.5,-173.45 1261.53,-173.45 1225,-174.92 1225,-176.73"/>
<text text-anchor="middle" x="1306.5" y="-159.5" font-family="Arial" font-size="10.00">SignalGroupAlignmentNotification</text>
</g>
<!-- mapSpatAlignment_subtopology_3&#45;&gt;mapSpatAlignment_SignalGroupAlignmentNotification -->
<g id="edge23" class="edge">
<title>mapSpatAlignment_subtopology_3&#45;&gt;mapSpatAlignment_SignalGroupAlignmentNotification</title>
<path fill="none" stroke="black" d="M1332.96,-215.7C1327.18,-207.64 1320.98,-197.89 1315.91,-188.98"/>
<polygon fill="black" stroke="black" points="1318.95,-187.24 1311.11,-180.1 1312.79,-190.57 1318.95,-187.24"/>
</g>
<!-- topic_CmSignalGroupAlignmentNotification -->
<g id="node21" class="node">
<title>topic_CmSignalGroupAlignmentNotification</title>
<polygon fill="none" stroke="black" points="1609,-180 1406,-180 1406,-144 1609,-144 1609,-180"/>
<text text-anchor="middle" x="1507.5" y="-159.5" font-family="Arial" font-size="10.00">topic.CmSignalGroupAlignmentNotification</text>
</g>
<!-- mapSpatAlignment_subtopology_3&#45;&gt;topic_CmSignalGroupAlignmentNotification -->
<g id="edge25" class="edge">
<title>mapSpatAlignment_subtopology_3&#45;&gt;topic_CmSignalGroupAlignmentNotification</title>
<path fill="none" stroke="black" d="M1388.15,-215.88C1409.75,-206.31 1436.85,-194.3 1459.77,-184.15"/>
<polygon fill="black" stroke="black" points="1461.25,-187.32 1468.97,-180.07 1458.41,-180.92 1461.25,-187.32"/>
</g>
<!-- mapSpatAlignment_SignalGroupAlignmentNotification&#45;&gt;mapSpatAlignment_subtopology_3 -->
<g id="edge24" class="edge">
<title>mapSpatAlignment_SignalGroupAlignmentNotification&#45;&gt;mapSpatAlignment_subtopology_3</title>
<path fill="none" stroke="black" d="M1322.9,-180.1C1328.67,-188.13 1334.88,-197.87 1339.96,-206.8"/>
<polygon fill="black" stroke="black" points="1336.94,-208.57 1344.79,-215.7 1343.1,-205.24 1336.94,-208.57"/>
</g>
<!-- mapSpatAlignment_SignalStateConflictNotification -->
<g id="node23" class="node">
<title>mapSpatAlignment_SignalStateConflictNotification</title>
<path fill="none" stroke="black" d="M1776.5,-176.73C1776.5,-178.53 1742.88,-180 1701.5,-180 1660.12,-180 1626.5,-178.53 1626.5,-176.73 1626.5,-176.73 1626.5,-147.27 1626.5,-147.27 1626.5,-145.47 1660.12,-144 1701.5,-144 1742.88,-144 1776.5,-145.47 1776.5,-147.27 1776.5,-147.27 1776.5,-176.73 1776.5,-176.73"/>
<path fill="none" stroke="black" d="M1776.5,-176.73C1776.5,-174.92 1742.88,-173.45 1701.5,-173.45 1660.12,-173.45 1626.5,-174.92 1626.5,-176.73"/>
<text text-anchor="middle" x="1701.5" y="-159.5" font-family="Arial" font-size="10.00">SignalStateConflictNotification</text>
</g>
<!-- mapSpatAlignment_subtopology_4&#45;&gt;mapSpatAlignment_SignalStateConflictNotification -->
<g id="edge27" class="edge">
<title>mapSpatAlignment_subtopology_4&#45;&gt;mapSpatAlignment_SignalStateConflictNotification</title>
<path fill="none" stroke="black" d="M1695.58,-215.7C1694.79,-207.98 1694.56,-198.71 1694.9,-190.11"/>
<polygon fill="black" stroke="black" points="1698.4,-190.32 1695.6,-180.1 1691.42,-189.84 1698.4,-190.32"/>
</g>
<!-- topic_CmSignalStateConflictNotification -->
<g id="node24" class="node">
<title>topic_CmSignalStateConflictNotification</title>
<polygon fill="none" stroke="black" points="1984.5,-180 1794.5,-180 1794.5,-144 1984.5,-144 1984.5,-180"/>
<text text-anchor="middle" x="1889.5" y="-159.5" font-family="Arial" font-size="10.00">topic.CmSignalStateConflictNotification</text>
</g>
<!-- mapSpatAlignment_subtopology_4&#45;&gt;topic_CmSignalStateConflictNotification -->
<g id="edge29" class="edge">
<title>mapSpatAlignment_subtopology_4&#45;&gt;topic_CmSignalStateConflictNotification</title>
<path fill="none" stroke="black" d="M1746.53,-216.23C1772.77,-206.46 1806.07,-194.07 1833.92,-183.69"/>
<polygon fill="black" stroke="black" points="1835.38,-186.89 1843.53,-180.12 1832.94,-180.33 1835.38,-186.89"/>
</g>
<!-- mapSpatAlignment_SignalStateConflictNotification&#45;&gt;mapSpatAlignment_subtopology_4 -->
<g id="edge28" class="edge">
<title>mapSpatAlignment_SignalStateConflictNotification&#45;&gt;mapSpatAlignment_subtopology_4</title>
<path fill="none" stroke="black" d="M1707.4,-180.1C1708.2,-187.79 1708.44,-197.05 1708.1,-205.67"/>
<polygon fill="black" stroke="black" points="1704.61,-205.48 1707.42,-215.7 1711.59,-205.96 1704.61,-205.48"/>
</g>
</g>
</svg>
