<?xml version="1.0" encoding="UTF-8" standalone="no"?>
<!DOCTYPE svg PUBLIC "-//W3C//DTD SVG 1.1//EN"
 "http://www.w3.org/Graphics/SVG/1.1/DTD/svg11.dtd">
<!-- Generated by graphviz version 12.0.0 (20240704.0754)
 -->
<!-- Title: G Pages: 1 -->
<svg width="1520pt" height="188pt"
 viewBox="0.00 0.00 1520.25 188.00" xmlns="http://www.w3.org/2000/svg" xmlns:xlink="http://www.w3.org/1999/xlink">
<g id="graph0" class="graph" transform="scale(1 1) rotate(0) translate(4 184)">
<title>G</title>
<polygon fill="white" stroke="none" points="-4,4 -4,-184 1516.25,-184 1516.25,4 -4,4"/>
<!-- mapValidation_subtopology_0 -->
<g id="node1" class="node">
<title>mapValidation_subtopology_0</title>
<polygon fill="none" stroke="black" points="673.44,-82.54 673.44,-97.46 619.58,-108 543.42,-108 489.56,-97.46 489.56,-82.54 543.42,-72 619.58,-72 673.44,-82.54"/>
<text text-anchor="middle" x="581.5" y="-86.5" font-family="Arial" font-size="10.00">mapValidation subtopology 0</text>
</g>
<!-- mapValidation_map_counts -->
<g id="node3" class="node">
<title>mapValidation_map_counts</title>
<path fill="none" stroke="black" d="M67,-32.73C67,-34.53 51.98,-36 33.5,-36 15.02,-36 0,-34.53 0,-32.73 0,-32.73 0,-3.27 0,-3.27 0,-1.47 15.02,0 33.5,0 51.98,0 67,-1.47 67,-3.27 67,-3.27 67,-32.73 67,-32.73"/>
<path fill="none" stroke="black" d="M67,-32.73C67,-30.92 51.98,-29.45 33.5,-29.45 15.02,-29.45 0,-30.92 0,-32.73"/>
<text text-anchor="middle" x="33.5" y="-14.5" font-family="Arial" font-size="10.00">map&#45;counts</text>
</g>
<!-- mapValidation_subtopology_0&#45;&gt;mapValidation_map_counts -->
<g id="edge2" class="edge">
<title>mapValidation_subtopology_0&#45;&gt;mapValidation_map_counts</title>
<path fill="none" stroke="black" d="M489.21,-87.3C387.49,-83.71 219.57,-72.64 74.58,-37.92"/>
<polygon fill="black" stroke="black" points="75.75,-34.6 65.21,-35.63 74.09,-41.4 75.75,-34.6"/>
</g>
<!-- mapValidation_KTABLE_SUPPRESS_STATE_STORE_0000000017 -->
<g id="node4" class="node">
<title>mapValidation_KTABLE_SUPPRESS_STATE_STORE_0000000017</title>
<path fill="none" stroke="black" d="M320.38,-32.73C320.38,-34.53 267.54,-36 202.5,-36 137.46,-36 84.62,-34.53 84.62,-32.73 84.62,-32.73 84.62,-3.27 84.62,-3.27 84.62,-1.47 137.46,0 202.5,0 267.54,0 320.38,-1.47 320.38,-3.27 320.38,-3.27 320.38,-32.73 320.38,-32.73"/>
<path fill="none" stroke="black" d="M320.38,-32.73C320.38,-30.92 267.54,-29.45 202.5,-29.45 137.46,-29.45 84.62,-30.92 84.62,-32.73"/>
<text text-anchor="middle" x="202.5" y="-14.5" font-family="Arial" font-size="10.00">KTABLE&#45;SUPPRESS&#45;STATE&#45;STORE&#45;0000000017</text>
</g>
<!-- mapValidation_subtopology_0&#45;&gt;mapValidation_KTABLE_SUPPRESS_STATE_STORE_0000000017 -->
<g id="edge4" class="edge">
<title>mapValidation_subtopology_0&#45;&gt;mapValidation_KTABLE_SUPPRESS_STATE_STORE_0000000017</title>
<path fill="none" stroke="black" d="M513.75,-77.44C453.95,-66.72 366.18,-50.56 299.05,-37.95"/>
<polygon fill="black" stroke="black" points="300,-34.57 289.53,-36.16 298.71,-41.45 300,-34.57"/>
</g>
<!-- mapValidation_mapTimestampDeltaEventStore -->
<g id="node5" class="node">
<title>mapValidation_mapTimestampDeltaEventStore</title>
<path fill="none" stroke="black" d="M490.75,-32.73C490.75,-34.53 456.57,-36 414.5,-36 372.43,-36 338.25,-34.53 338.25,-32.73 338.25,-32.73 338.25,-3.27 338.25,-3.27 338.25,-1.47 372.43,0 414.5,0 456.57,0 490.75,-1.47 490.75,-3.27 490.75,-3.27 490.75,-32.73 490.75,-32.73"/>
<path fill="none" stroke="black" d="M490.75,-32.73C490.75,-30.92 456.57,-29.45 414.5,-29.45 372.43,-29.45 338.25,-30.92 338.25,-32.73"/>
<text text-anchor="middle" x="414.5" y="-14.5" font-family="Arial" font-size="10.00">mapTimestampDeltaEventStore</text>
</g>
<!-- mapValidation_subtopology_0&#45;&gt;mapValidation_mapTimestampDeltaEventStore -->
<g id="edge6" class="edge">
<title>mapValidation_subtopology_0&#45;&gt;mapValidation_mapTimestampDeltaEventStore</title>
<path fill="none" stroke="black" d="M536.97,-72.76C513.43,-63.34 484.64,-51.35 460.84,-41.08"/>
<polygon fill="black" stroke="black" points="462.26,-37.87 451.69,-37.1 459.47,-44.29 462.26,-37.87"/>
</g>
<!-- mapValidation_mapTimestampDeltaKeyStore -->
<g id="node6" class="node">
<title>mapValidation_mapTimestampDeltaKeyStore</title>
<path fill="none" stroke="black" d="M654.38,-32.73C654.38,-34.53 621.71,-36 581.5,-36 541.29,-36 508.62,-34.53 508.62,-32.73 508.62,-32.73 508.62,-3.27 508.62,-3.27 508.62,-1.47 541.29,0 581.5,0 621.71,0 654.38,-1.47 654.38,-3.27 654.38,-3.27 654.38,-32.73 654.38,-32.73"/>
<path fill="none" stroke="black" d="M654.38,-32.73C654.38,-30.92 621.71,-29.45 581.5,-29.45 541.29,-29.45 508.62,-30.92 508.62,-32.73"/>
<text text-anchor="middle" x="581.5" y="-14.5" font-family="Arial" font-size="10.00">mapTimestampDeltaKeyStore</text>
</g>
<!-- mapValidation_subtopology_0&#45;&gt;mapValidation_mapTimestampDeltaKeyStore -->
<g id="edge8" class="edge">
<title>mapValidation_subtopology_0&#45;&gt;mapValidation_mapTimestampDeltaKeyStore</title>
<path fill="none" stroke="black" d="M575.58,-71.7C574.83,-64.41 574.59,-55.73 574.85,-47.54"/>
<polygon fill="black" stroke="black" points="578.34,-47.82 575.51,-37.61 571.36,-47.36 578.34,-47.82"/>
</g>
<!-- mapValidation_latest_timestamp_store -->
<g id="node7" class="node">
<title>mapValidation_latest_timestamp_store</title>
<path fill="none" stroke="black" d="M786.25,-32.73C786.25,-34.53 760.81,-36 729.5,-36 698.19,-36 672.75,-34.53 672.75,-32.73 672.75,-32.73 672.75,-3.27 672.75,-3.27 672.75,-1.47 698.19,0 729.5,0 760.81,0 786.25,-1.47 786.25,-3.27 786.25,-3.27 786.25,-32.73 786.25,-32.73"/>
<path fill="none" stroke="black" d="M786.25,-32.73C786.25,-30.92 760.81,-29.45 729.5,-29.45 698.19,-29.45 672.75,-30.92 672.75,-32.73"/>
<text text-anchor="middle" x="729.5" y="-14.5" font-family="Arial" font-size="10.00">latest&#45;timestamp&#45;store</text>
</g>
<!-- mapValidation_subtopology_0&#45;&gt;mapValidation_latest_timestamp_store -->
<g id="edge10" class="edge">
<title>mapValidation_subtopology_0&#45;&gt;mapValidation_latest_timestamp_store</title>
<path fill="none" stroke="black" d="M612.53,-71.52C631.37,-62.16 655.81,-50.54 677.5,-40.62"/>
<polygon fill="black" stroke="black" points="678.86,-43.85 686.52,-36.52 675.97,-37.47 678.86,-43.85"/>
</g>
<!-- topic_CmTimestampDeltaEvent -->
<g id="node8" class="node">
<title>topic_CmTimestampDeltaEvent</title>
<polygon fill="none" stroke="black" points="954.25,-36 804.75,-36 804.75,0 954.25,0 954.25,-36"/>
<text text-anchor="middle" x="879.5" y="-14.5" font-family="Arial" font-size="10.00">topic.CmTimestampDeltaEvent</text>
</g>
<!-- mapValidation_subtopology_0&#45;&gt;topic_CmTimestampDeltaEvent -->
<g id="edge12" class="edge">
<title>mapValidation_subtopology_0&#45;&gt;topic_CmTimestampDeltaEvent</title>
<path fill="none" stroke="black" d="M639.31,-75.42C683.29,-65.09 744.5,-50.71 794.11,-39.06"/>
<polygon fill="black" stroke="black" points="794.75,-42.5 803.69,-36.81 793.15,-35.69 794.75,-42.5"/>
</g>
<!-- topic_CmTimestampDeltaNotification -->
<g id="node9" class="node">
<title>topic_CmTimestampDeltaNotification</title>
<polygon fill="none" stroke="black" points="1146.25,-36 972.75,-36 972.75,0 1146.25,0 1146.25,-36"/>
<text text-anchor="middle" x="1059.5" y="-14.5" font-family="Arial" font-size="10.00">topic.CmTimestampDeltaNotification</text>
</g>
<!-- mapValidation_subtopology_0&#45;&gt;topic_CmTimestampDeltaNotification -->
<g id="edge13" class="edge">
<title>mapValidation_subtopology_0&#45;&gt;topic_CmTimestampDeltaNotification</title>
<path fill="none" stroke="black" d="M658.45,-79.18C733.2,-69.45 850.18,-53.71 961.32,-36.31"/>
<polygon fill="black" stroke="black" points="961.57,-39.82 970.91,-34.81 960.49,-32.9 961.57,-39.82"/>
</g>
<!-- topic_CmMapMinimumDataEvents -->
<g id="node10" class="node">
<title>topic_CmMapMinimumDataEvents</title>
<polygon fill="none" stroke="black" points="1327,-36 1164,-36 1164,0 1327,0 1327,-36"/>
<text text-anchor="middle" x="1245.5" y="-14.5" font-family="Arial" font-size="10.00">topic.CmMapMinimumDataEvents</text>
</g>
<!-- mapValidation_subtopology_0&#45;&gt;topic_CmMapMinimumDataEvents -->
<g id="edge14" class="edge">
<title>mapValidation_subtopology_0&#45;&gt;topic_CmMapMinimumDataEvents</title>
<path fill="none" stroke="black" d="M673.77,-83.18C785.05,-75.55 977.96,-60.39 1152.44,-36.36"/>
<polygon fill="black" stroke="black" points="1152.72,-39.86 1162.14,-35.01 1151.75,-32.92 1152.72,-39.86"/>
</g>
<!-- topic_CmMapBroadcastRateEvents -->
<g id="node11" class="node">
<title>topic_CmMapBroadcastRateEvents</title>
<polygon fill="none" stroke="black" points="1512.25,-36 1344.75,-36 1344.75,0 1512.25,0 1512.25,-36"/>
<text text-anchor="middle" x="1428.5" y="-14.5" font-family="Arial" font-size="10.00">topic.CmMapBroadcastRateEvents</text>
</g>
<!-- mapValidation_subtopology_0&#45;&gt;topic_CmMapBroadcastRateEvents -->
<g id="edge15" class="edge">
<title>mapValidation_subtopology_0&#45;&gt;topic_CmMapBroadcastRateEvents</title>
<path fill="none" stroke="black" d="M673.93,-85.87C814.43,-80.36 1090.26,-66.63 1333.16,-36.35"/>
<polygon fill="black" stroke="black" points="1333.35,-39.86 1342.83,-35.13 1332.47,-32.91 1333.35,-39.86"/>
</g>
<!-- topic_ProcessedMap -->
<g id="node2" class="node">
<title>topic_ProcessedMap</title>
<polygon fill="none" stroke="black" points="634.12,-180 528.88,-180 528.88,-144 634.12,-144 634.12,-180"/>
<text text-anchor="middle" x="581.5" y="-158.5" font-family="Arial" font-size="10.00">topic.ProcessedMap</text>
</g>
<!-- topic_ProcessedMap&#45;&gt;mapValidation_subtopology_0 -->
<g id="edge1" class="edge">
<title>topic_ProcessedMap&#45;&gt;mapValidation_subtopology_0</title>
<path fill="none" stroke="black" d="M581.5,-143.7C581.5,-136.41 581.5,-127.73 581.5,-119.54"/>
<polygon fill="black" stroke="black" points="585,-119.62 581.5,-109.62 578,-119.62 585,-119.62"/>
</g>
<!-- mapValidation_map_counts&#45;&gt;mapValidation_subtopology_0 -->
<g id="edge3" class="edge">
<title>mapValidation_map_counts&#45;&gt;mapValidation_subtopology_0</title>
<path fill="none" stroke="black" d="M67.22,-30.42C72.96,-32.58 78.85,-34.59 84.5,-36 217.98,-69.3 376.33,-81.7 477.86,-86.3"/>
<polygon fill="black" stroke="black" points="477.69,-89.8 487.83,-86.73 477.99,-82.8 477.69,-89.8"/>
</g>
<!-- mapValidation_KTABLE_SUPPRESS_STATE_STORE_0000000017&#45;&gt;mapValidation_subtopology_0 -->
<g id="edge5" class="edge">
<title>mapValidation_KTABLE_SUPPRESS_STATE_STORE_0000000017&#45;&gt;mapValidation_subtopology_0</title>
<path fill="none" stroke="black" d="M298.11,-35.58C363.02,-47.33 447.56,-62.96 507.38,-74.27"/>
<polygon fill="black" stroke="black" points="506.67,-77.7 517.15,-76.12 507.97,-70.82 506.67,-77.7"/>
</g>
<!-- mapValidation_mapTimestampDeltaEventStore&#45;&gt;mapValidation_subtopology_0 -->
<g id="edge7" class="edge">
<title>mapValidation_mapTimestampDeltaEventStore&#45;&gt;mapValidation_subtopology_0</title>
<path fill="none" stroke="black" d="M461.59,-36.26C484.65,-45.52 512.26,-57.04 535.21,-66.95"/>
<polygon fill="black" stroke="black" points="533.77,-70.14 544.34,-70.91 536.56,-63.72 533.77,-70.14"/>
</g>
<!-- mapValidation_mapTimestampDeltaKeyStore&#45;&gt;mapValidation_subtopology_0 -->
<g id="edge9" class="edge">
<title>mapValidation_mapTimestampDeltaKeyStore&#45;&gt;mapValidation_subtopology_0</title>
<path fill="none" stroke="black" d="M587.4,-36.1C588.16,-43.37 588.41,-52.04 588.15,-60.24"/>
<polygon fill="black" stroke="black" points="584.66,-59.98 587.51,-70.19 591.65,-60.43 584.66,-59.98"/>
</g>
<!-- mapValidation_latest_timestamp_store&#45;&gt;mapValidation_subtopology_0 -->
<g id="edge11" class="edge">
<title>mapValidation_latest_timestamp_store&#45;&gt;mapValidation_subtopology_0</title>
<path fill="none" stroke="black" d="M698.72,-36.36C679.78,-45.78 655.12,-57.5 633.27,-67.49"/>
<polygon fill="black" stroke="black" points="631.85,-64.29 624.19,-71.61 634.74,-70.66 631.85,-64.29"/>
</g>
</g>
</svg>
