<?xml version="1.0" encoding="UTF-8" standalone="no"?>
<!DOCTYPE svg PUBLIC "-//W3C//DTD SVG 1.1//EN"
 "http://www.w3.org/Graphics/SVG/1.1/DTD/svg11.dtd">
<!-- Generated by graphviz version 12.0.0 (20240704.0754)
 -->
<!-- Title: G Pages: 1 -->
<svg width="994pt" height="188pt"
 viewBox="0.00 0.00 994.25 188.00" xmlns="http://www.w3.org/2000/svg" xmlns:xlink="http://www.w3.org/1999/xlink">
<g id="graph0" class="graph" transform="scale(1 1) rotate(0) translate(4 184)">
<title>G</title>
<polygon fill="white" stroke="none" points="-4,4 -4,-184 990.25,-184 990.25,4 -4,4"/>
<!-- mapValidation_subtopology_0 -->
<g id="node1" class="node">
<title>mapValidation_subtopology_0</title>
<polygon fill="none" stroke="black" points="487.44,-82.54 487.44,-97.46 433.58,-108 357.42,-108 303.56,-97.46 303.56,-82.54 357.42,-72 433.58,-72 487.44,-82.54"/>
<text text-anchor="middle" x="395.5" y="-86.5" font-family="Arial" font-size="10.00">mapValidation subtopology 0</text>
</g>
<!-- map_counts -->
<g id="node3" class="node">
<title>map_counts</title>
<path fill="none" stroke="black" d="M67,-32.73C67,-34.53 51.98,-36 33.5,-36 15.02,-36 0,-34.53 0,-32.73 0,-32.73 0,-3.27 0,-3.27 0,-1.47 15.02,0 33.5,0 51.98,0 67,-1.47 67,-3.27 67,-3.27 67,-32.73 67,-32.73"/>
<path fill="none" stroke="black" d="M67,-32.73C67,-30.92 51.98,-29.45 33.5,-29.45 15.02,-29.45 0,-30.92 0,-32.73"/>
<text text-anchor="middle" x="33.5" y="-14.5" font-family="Arial" font-size="10.00">map&#45;counts</text>
</g>
<!-- mapValidation_subtopology_0&#45;&gt;map_counts -->
<g id="edge2" class="edge">
<title>mapValidation_subtopology_0&#45;&gt;map_counts</title>
<path fill="none" stroke="black" d="M309.63,-80.88C245.31,-73.3 155.39,-59.94 74.58,-38.18"/>
<polygon fill="black" stroke="black" points="75.79,-34.88 65.22,-35.6 73.93,-41.63 75.79,-34.88"/>
</g>
<!-- KTABLE_SUPPRESS_STATE_STORE_0000000015 -->
<g id="node4" class="node">
<title>KTABLE_SUPPRESS_STATE_STORE_0000000015</title>
<path fill="none" stroke="black" d="M320.38,-32.73C320.38,-34.53 267.54,-36 202.5,-36 137.46,-36 84.62,-34.53 84.62,-32.73 84.62,-32.73 84.62,-3.27 84.62,-3.27 84.62,-1.47 137.46,0 202.5,0 267.54,0 320.38,-1.47 320.38,-3.27 320.38,-3.27 320.38,-32.73 320.38,-32.73"/>
<path fill="none" stroke="black" d="M320.38,-32.73C320.38,-30.92 267.54,-29.45 202.5,-29.45 137.46,-29.45 84.62,-30.92 84.62,-32.73"/>
<text text-anchor="middle" x="202.5" y="-14.5" font-family="Arial" font-size="10.00">KTABLE&#45;SUPPRESS&#45;STATE&#45;STORE&#45;0000000015</text>
</g>
<!-- mapValidation_subtopology_0&#45;&gt;KTABLE_SUPPRESS_STATE_STORE_0000000015 -->
<g id="edge4" class="edge">
<title>mapValidation_subtopology_0&#45;&gt;KTABLE_SUPPRESS_STATE_STORE_0000000015</title>
<path fill="none" stroke="black" d="M347.45,-73.64C319.41,-63.9 284.09,-51.15 255.29,-40.42"/>
<polygon fill="black" stroke="black" points="256.61,-37.18 246.02,-36.95 254.16,-43.74 256.61,-37.18"/>
</g>
<!-- latest_timestamp_store -->
<g id="node5" class="node">
<title>latest_timestamp_store</title>
<path fill="none" stroke="black" d="M452.25,-32.73C452.25,-34.53 426.81,-36 395.5,-36 364.19,-36 338.75,-34.53 338.75,-32.73 338.75,-32.73 338.75,-3.27 338.75,-3.27 338.75,-1.47 364.19,0 395.5,0 426.81,0 452.25,-1.47 452.25,-3.27 452.25,-3.27 452.25,-32.73 452.25,-32.73"/>
<path fill="none" stroke="black" d="M452.25,-32.73C452.25,-30.92 426.81,-29.45 395.5,-29.45 364.19,-29.45 338.75,-30.92 338.75,-32.73"/>
<text text-anchor="middle" x="395.5" y="-14.5" font-family="Arial" font-size="10.00">latest&#45;timestamp&#45;store</text>
</g>
<!-- mapValidation_subtopology_0&#45;&gt;latest_timestamp_store -->
<g id="edge6" class="edge">
<title>mapValidation_subtopology_0&#45;&gt;latest_timestamp_store</title>
<path fill="none" stroke="black" d="M389.58,-71.7C388.83,-64.41 388.59,-55.73 388.85,-47.54"/>
<polygon fill="black" stroke="black" points="392.34,-47.82 389.51,-37.61 385.36,-47.36 392.34,-47.82"/>
</g>
<!-- topic_CmTimestampDeltaEvent -->
<g id="node6" class="node">
<title>topic_CmTimestampDeltaEvent</title>
<polygon fill="none" stroke="black" points="620.25,-36 470.75,-36 470.75,0 620.25,0 620.25,-36"/>
<text text-anchor="middle" x="545.5" y="-14.5" font-family="Arial" font-size="10.00">topic.CmTimestampDeltaEvent</text>
</g>
<!-- mapValidation_subtopology_0&#45;&gt;topic_CmTimestampDeltaEvent -->
<g id="edge8" class="edge">
<title>mapValidation_subtopology_0&#45;&gt;topic_CmTimestampDeltaEvent</title>
<path fill="none" stroke="black" d="M432.96,-71.52C452.64,-62.34 476.95,-50.99 497.94,-41.2"/>
<polygon fill="black" stroke="black" points="499.3,-44.42 506.88,-37.02 496.34,-38.08 499.3,-44.42"/>
</g>
<!-- topic_CmMapMinimumDataEvents -->
<g id="node7" class="node">
<title>topic_CmMapMinimumDataEvents</title>
<polygon fill="none" stroke="black" points="801,-36 638,-36 638,0 801,0 801,-36"/>
<text text-anchor="middle" x="719.5" y="-14.5" font-family="Arial" font-size="10.00">topic.CmMapMinimumDataEvents</text>
</g>
<!-- mapValidation_subtopology_0&#45;&gt;topic_CmMapMinimumDataEvents -->
<g id="edge9" class="edge">
<title>mapValidation_subtopology_0&#45;&gt;topic_CmMapMinimumDataEvents</title>
<path fill="none" stroke="black" d="M456.06,-75.92C504.3,-65.49 572.61,-50.74 627.58,-38.86"/>
<polygon fill="black" stroke="black" points="628.23,-42.3 637.27,-36.77 626.75,-35.46 628.23,-42.3"/>
</g>
<!-- topic_CmMapBroadcastRateEvents -->
<g id="node8" class="node">
<title>topic_CmMapBroadcastRateEvents</title>
<polygon fill="none" stroke="black" points="986.25,-36 818.75,-36 818.75,0 986.25,0 986.25,-36"/>
<text text-anchor="middle" x="902.5" y="-14.5" font-family="Arial" font-size="10.00">topic.CmMapBroadcastRateEvents</text>
</g>
<!-- mapValidation_subtopology_0&#45;&gt;topic_CmMapBroadcastRateEvents -->
<g id="edge10" class="edge">
<title>mapValidation_subtopology_0&#45;&gt;topic_CmMapBroadcastRateEvents</title>
<path fill="none" stroke="black" d="M476.8,-79.97C558.07,-70.64 686.87,-55.02 807.07,-36.5"/>
<polygon fill="black" stroke="black" points="807.46,-39.98 816.81,-34.98 806.39,-33.06 807.46,-39.98"/>
</g>
<!-- topic_ProcessedMap -->
<g id="node2" class="node">
<title>topic_ProcessedMap</title>
<polygon fill="none" stroke="black" points="448.12,-180 342.88,-180 342.88,-144 448.12,-144 448.12,-180"/>
<text text-anchor="middle" x="395.5" y="-158.5" font-family="Arial" font-size="10.00">topic.ProcessedMap</text>
</g>
<!-- topic_ProcessedMap&#45;&gt;mapValidation_subtopology_0 -->
<g id="edge1" class="edge">
<title>topic_ProcessedMap&#45;&gt;mapValidation_subtopology_0</title>
<path fill="none" stroke="black" d="M395.5,-143.7C395.5,-136.41 395.5,-127.73 395.5,-119.54"/>
<polygon fill="black" stroke="black" points="399,-119.62 395.5,-109.62 392,-119.62 399,-119.62"/>
</g>
<!-- map_counts&#45;&gt;mapValidation_subtopology_0 -->
<g id="edge3" class="edge">
<title>map_counts&#45;&gt;mapValidation_subtopology_0</title>
<path fill="none" stroke="black" d="M67.29,-30.17C73.02,-32.34 78.9,-34.42 84.5,-36 157.09,-56.43 241.3,-69.99 303.82,-78.28"/>
<polygon fill="black" stroke="black" points="303.37,-81.75 313.73,-79.57 304.27,-74.8 303.37,-81.75"/>
</g>
<!-- KTABLE_SUPPRESS_STATE_STORE_0000000015&#45;&gt;mapValidation_subtopology_0 -->
<g id="edge5" class="edge">
<title>KTABLE_SUPPRESS_STATE_STORE_0000000015&#45;&gt;mapValidation_subtopology_0</title>
<path fill="none" stroke="black" d="M256.39,-36.4C283.88,-46.01 317.1,-58.02 344.21,-68.14"/>
<polygon fill="black" stroke="black" points="342.65,-71.29 353.24,-71.52 345.11,-64.73 342.65,-71.29"/>
</g>
<!-- latest_timestamp_store&#45;&gt;mapValidation_subtopology_0 -->
<g id="edge7" class="edge">
<title>latest_timestamp_store&#45;&gt;mapValidation_subtopology_0</title>
<path fill="none" stroke="black" d="M401.4,-36.1C402.16,-43.37 402.41,-52.04 402.15,-60.24"/>
<polygon fill="black" stroke="black" points="398.66,-59.98 401.51,-70.19 405.65,-60.43 398.66,-59.98"/>
</g>
</g>
</svg>
